# xmcd CD database file
#
# Track frame offsets:
#	150
#	25175
#	49700
#	74825
#	99800
#	124325
#
# Disc length: 1992 seconds
#
# Revision: 0
# Processed by: cddbd v1.5.1PL0 Copyright (c) Steve Scherf et al.
# Submitted via: CDex 1.50beta8
#
DISCID=4e07c606
DTITLE=ﾁｰｽﾞｽﾅｯｸ/轟一郎/御社亜紀 - なんてったってｱｲﾄﾞﾙ
DYEAR=2004
DGENRE=J ポップ
TTITLE0=勇気の翼
TTITLE1=やっちゃうよ
TTITLE2=飲むしょ朝まで
TTITLE3=勇気の翼（カラオケ）
TTITLE4=やっちゃうよ（カラオケ）
TTITLE5=飲むしょ朝まで（カラオケ)
EXTD=YEAR: 2004
EXTT0=
EXTT1=
EXTT2=
EXTT3=
EXTT4=
EXTT5=
PLAYORDER=
